# xmcd
#
# Track frame offsets: 
#        150
#        20483
#        32931
#        44879
#        61350
#        81460
#        111335
#        131556
#        171184
#        190135
#        213879
#        232757
#        246352
#        265327
#        277160
#
# Disc length: 3974 seconds
#
# Revision: 0
# Processed by: cddbd v1.5.2PL0 Copyright (c) Steve Scherf et al.
# Submitted via: ExactAudioCopy v1.2
#
DISCID=e40f840f
DTITLE=Hobo - Lassú vonat (Bob Dylan-dalok)
DYEAR=2018
DGENRE=Blues
TTITLE0=Várok rád reggel (Meet Me in the Morning)
TTITLE1=Magányos hobó vagyok (I Am a Lonesome Hobo)
TTITLE2=Végig az őrtorony mellett (All Along the Watchtower)
TTITLE3=Egy sovány ember balladája (Ballad of a Thin Man)
TTITLE4=Egy kerék lángol (This Wheel's on Fire)
TTITLE5=A szabadság harangjai (The Chimes of Freedom)
TTITLE6=Nagybetűs blues (Call Letter Blues)
TTITLE7=A Pusztítás során (Desolation Row)
TTITLE8=A választ a szél súgja (Blowin' in the Wind)
TTITLE9=Mint egy rolling stone (Like a Rolling Stone)
TTITLE10=Mindennek vége, baby blue (It's All Over Now, Baby Blue)
TTITLE11=Az idők változnak (The Times Are a-Changin')
TTITLE12=Minden homokszem (Ev'ry Grain of Sand)
TTITLE13=Csak egy hobó (Only a Hobo)
TTITLE14=Lassú vonat (Slow Train Comin')
EXTD=
EXTT0=
EXTT1=
EXTT2=
EXTT3=
EXTT4=
EXTT5=
EXTT6=
EXTT7=
EXTT8=
EXTT9=
EXTT10=
EXTT11=
EXTT12=
EXTT13=
EXTT14=
PLAYORDER=
